# Wavefront OBJ file automatically generated by Tiled2Unity

# Vertices (Count = 424)
v 0 -2 0
v -1 -2 0
v -1 -1 0
v 0 -1 0
v -2 -2 0
v -2 -1 0
v -3 -2 0
v -3 -1 0
v -4 -2 0
v -4 -1 0
v -5 -2 0
v -5 -1 0
v -6 -2 0
v -6 -1 0
v -7 -2 0
v -7 -1 0
v -8 -2 0
v -8 -1 0
v -9 -2 0
v -9 -1 0
v -10 -2 0
v -10 -1 0
v -11 -2 0
v -11 -1 0
v -12 -2 0
v -12 -1 0
v -13 -2 0
v -13 -1 0
v 0 -3 0
v -1 -3 0
v -2 -3 0
v -3 -3 0
v -4 -3 0
v -5 -3 0
v -6 -3 0
v -7 -3 0
v -8 -3 0
v -9 -3 0
v -10 -3 0
v -11 -3 0
v -12 -3 0
v -13 -3 0
v 0 -4 0
v -1 -4 0
v -2 -4 0
v -3 -4 0
v -4 -4 0
v -5 -4 0
v -6 -4 0
v -7 -4 0
v -8 -4 0
v -9 -4 0
v -10 -4 0
v -11 -4 0
v -12 -4 0
v -13 -4 0
v 0 -10 0
v -1 -10 0
v -1 -9 0
v 0 -9 0
v -2 -10 0
v -2 -9 0
v -3 -10 0
v -3 -9 0
v -4 -10 0
v -4 -9 0
v -5 -10 0
v -5 -9 0
v -6 -10 0
v -6 -9 0
v -7 -10 0
v -7 -9 0
v -11 -10 0
v -12 -10 0
v -12 -9 0
v -11 -9 0
v -13 -10 0
v -13 -9 0
v -14 -10 0
v -14 -9 0
v -15 -10 0
v -15 -9 0
v -16 -10 0
v -16 -9 0
v -17 -10 0
v -17 -9 0
v -18 -10 0
v -18 -9 0
v 0 -11 0
v -1 -11 0
v -2 -11 0
v -3 -11 0
v -4 -11 0
v -5 -11 0
v -6 -11 0
v -7 -11 0
v -11 -11 0
v -12 -11 0
v -13 -11 0
v -14 -11 0
v -15 -11 0
v -16 -11 0
v -17 -11 0
v -18 -11 0
v 0 -12 0
v -1 -12 0
v -2 -12 0
v -3 -12 0
v -4 -12 0
v -5 -12 0
v -6 -12 0
v -7 -12 0
v -11 -12 0
v -12 -12 0
v -13 -12 0
v -14 -12 0
v -15 -12 0
v -16 -12 0
v -17 -12 0
v -18 -12 0
v -7 -18 0
v -8 -18 0
v -8 -17 0
v -7 -17 0
v -9 -18 0
v -9 -17 0
v -10 -18 0
v -10 -17 0
v -7 -19 0
v -8 -19 0
v -9 -19 0
v -10 -19 0
v -7 -20 0
v -8 -20 0
v -9 -20 0
v -10 -20 0
v 0 -21 0
v -1 -21 0
v -1 -20 0
v 0 -20 0
v -2 -21 0
v -2 -20 0
v -3 -21 0
v -3 -20 0
v -4 -21 0
v -4 -20 0
v -5 -21 0
v -5 -20 0
v -6 -21 0
v -6 -20 0
v -7 -21 0
v -8 -21 0
v -9 -21 0
v -10 -21 0
v -11 -21 0
v -11 -20 0
v -12 -21 0
v -12 -20 0
v -13 -21 0
v -13 -20 0
v -14 -21 0
v -14 -20 0
v -15 -21 0
v -15 -20 0
v -16 -21 0
v -16 -20 0
v 0 -22 0
v -1 -22 0
v -2 -22 0
v -3 -22 0
v -4 -22 0
v -5 -22 0
v -6 -22 0
v -7 -22 0
v -8 -22 0
v -9 -22 0
v -10 -22 0
v -11 -22 0
v -12 -22 0
v -13 -22 0
v -14 -22 0
v -15 -22 0
v -16 -22 0
v 0 -23 0
v -1 -23 0
v -2 -23 0
v -3 -23 0
v -4 -23 0
v -5 -23 0
v -6 -23 0
v -7 -23 0
v -8 -23 0
v -9 -23 0
v -10 -23 0
v -11 -23 0
v -12 -23 0
v -13 -23 0
v -14 -23 0
v -15 -23 0
v -16 -23 0
v -7 -29 0
v -8 -29 0
v -8 -28 0
v -7 -28 0
v -9 -29 0
v -9 -28 0
v -10 -29 0
v -10 -28 0
v -7 -30 0
v -8 -30 0
v -9 -30 0
v -10 -30 0
v -7 -31 0
v -8 -31 0
v -9 -31 0
v -10 -31 0
v -7 -32 0
v -8 -32 0
v -9 -32 0
v -10 -32 0
v 0 -33 0
v -1 -33 0
v -1 -32 0
v 0 -32 0
v -2 -33 0
v -2 -32 0
v -3 -33 0
v -3 -32 0
v -4 -33 0
v -4 -32 0
v -5 -33 0
v -5 -32 0
v -6 -33 0
v -6 -32 0
v -7 -33 0
v -8 -33 0
v -9 -33 0
v -10 -33 0
v -11 -33 0
v -11 -32 0
v -12 -33 0
v -12 -32 0
v -13 -33 0
v -13 -32 0
v -14 -33 0
v -14 -32 0
v -15 -33 0
v -15 -32 0
v -16 -33 0
v -16 -32 0
v -17 -33 0
v -17 -32 0
v -18 -33 0
v -18 -32 0
v -19 -33 0
v -19 -32 0
v -20 -33 0
v -20 -32 0
v -21 -33 0
v -21 -32 0
v -22 -33 0
v -22 -32 0
v 0 -34 0
v -1 -34 0
v -2 -34 0
v -3 -34 0
v -4 -34 0
v -5 -34 0
v -6 -34 0
v -7 -34 0
v -8 -34 0
v -9 -34 0
v -10 -34 0
v -11 -34 0
v -12 -34 0
v -13 -34 0
v -14 -34 0
v -15 -34 0
v -16 -34 0
v -17 -34 0
v -18 -34 0
v -19 -34 0
v -20 -34 0
v -21 -34 0
v -22 -34 0
v 0 -35 0
v -1 -35 0
v -2 -35 0
v -3 -35 0
v -4 -35 0
v -5 -35 0
v -6 -35 0
v -7 -35 0
v -8 -35 0
v -9 -35 0
v -10 -35 0
v -11 -35 0
v -12 -35 0
v -13 -35 0
v -14 -35 0
v -15 -35 0
v -16 -35 0
v -17 -35 0
v -18 -35 0
v -19 -35 0
v -20 -35 0
v -21 -35 0
v -22 -35 0
v -19 -43 0
v -20 -43 0
v -20 -42 0
v -19 -42 0
v -21 -43 0
v -21 -42 0
v -22 -43 0
v -22 -42 0
v -23 -43 0
v -23 -42 0
v -24 -43 0
v -24 -42 0
v -25 -43 0
v -25 -42 0
v -19 -44 0
v -20 -44 0
v -21 -44 0
v -22 -44 0
v -23 -44 0
v -24 -44 0
v -25 -44 0
v -19 -45 0
v -20 -45 0
v -21 -45 0
v -22 -45 0
v -23 -45 0
v -24 -45 0
v -25 -45 0
v -19 -46 0
v -20 -46 0
v -21 -46 0
v -22 -46 0
v -23 -46 0
v -24 -46 0
v -25 -46 0
v 0 -47 0
v -1 -47 0
v -1 -46 0
v 0 -46 0
v -2 -47 0
v -2 -46 0
v -3 -47 0
v -3 -46 0
v -4 -47 0
v -4 -46 0
v -5 -47 0
v -5 -46 0
v -6 -47 0
v -6 -46 0
v -7 -47 0
v -7 -46 0
v -12 -47 0
v -13 -47 0
v -13 -46 0
v -12 -46 0
v -14 -47 0
v -14 -46 0
v -15 -47 0
v -15 -46 0
v -16 -47 0
v -16 -46 0
v -17 -47 0
v -17 -46 0
v -18 -47 0
v -18 -46 0
v -19 -47 0
v -20 -47 0
v -21 -47 0
v -22 -47 0
v -23 -47 0
v -24 -47 0
v -25 -47 0
v 0 -48 0
v -1 -48 0
v -2 -48 0
v -3 -48 0
v -4 -48 0
v -5 -48 0
v -6 -48 0
v -7 -48 0
v -12 -48 0
v -13 -48 0
v -14 -48 0
v -15 -48 0
v -16 -48 0
v -17 -48 0
v -18 -48 0
v -19 -48 0
v -20 -48 0
v -21 -48 0
v -22 -48 0
v -23 -48 0
v -24 -48 0
v -25 -48 0
v 0 -49 0
v -1 -49 0
v -2 -49 0
v -3 -49 0
v -4 -49 0
v -5 -49 0
v -6 -49 0
v -7 -49 0
v -12 -49 0
v -13 -49 0
v -14 -49 0
v -15 -49 0
v -16 -49 0
v -17 -49 0
v -18 -49 0
v -19 -49 0
v -20 -49 0
v -21 -49 0
v -22 -49 0
v -23 -49 0
v -24 -49 0
v -25 -49 0

# Texture cooridinates (Count = 40)
vt 0.5001221 0.8334554
vt 0.6248779 0.8334554
vt 0.6248779 0.9998779
vt 0.5001221 0.9998779
vt 0.1251221 0.8334554
vt 0.2498779 0.8334554
vt 0.2498779 0.9998779
vt 0.1251221 0.9998779
vt 0.1251221 0.5001221
vt 0.2498779 0.5001221
vt 0.2498779 0.6665446
vt 0.1251221 0.6665446
vt 0.6251221 0.8334554
vt 0.7498779 0.8334554
vt 0.7498779 0.9998779
vt 0.6251221 0.9998779
vt 0.2501221 0.8334554
vt 0.3748779 0.8334554
vt 0.3748779 0.9998779
vt 0.2501221 0.9998779
vt 0.1251221 0.6667888
vt 0.2498779 0.6667888
vt 0.2498779 0.8332112
vt 0.1251221 0.8332112
vt 0.3751221 0.8334554
vt 0.4998779 0.8334554
vt 0.4998779 0.9998779
vt 0.3751221 0.9998779
vt 0.7501221 0.8334554
vt 0.8748779 0.8334554
vt 0.8748779 0.9998779
vt 0.7501221 0.9998779
vt 0.0001220703 0.5001221
vt 0.1248779 0.5001221
vt 0.1248779 0.6665446
vt 0.0001220703 0.6665446
vt 0.7501221 0.6667888
vt 0.8748779 0.6667888
vt 0.8748779 0.8332112
vt 0.7501221 0.8332112

# Normal
vn 0 0 -1

# Groups (Count = 1)

g mesh_0001
f 1/1/1 2/2/1 3/3/1 4/4/1
f 2/5/1 5/6/1 6/7/1 3/8/1
f 5/5/1 7/6/1 8/7/1 6/8/1
f 7/5/1 9/6/1 10/7/1 8/8/1
f 9/5/1 11/6/1 12/7/1 10/8/1
f 11/5/1 13/6/1 14/7/1 12/8/1
f 13/5/1 15/6/1 16/7/1 14/8/1
f 15/5/1 17/6/1 18/7/1 16/8/1
f 17/5/1 19/6/1 20/7/1 18/8/1
f 19/5/1 21/6/1 22/7/1 20/8/1
f 21/9/1 23/10/1 24/11/1 22/12/1
f 23/5/1 25/6/1 26/7/1 24/8/1
f 25/13/1 27/14/1 28/15/1 26/16/1
f 29/17/1 30/18/1 2/19/1 1/20/1
f 30/21/1 31/22/1 5/23/1 2/24/1
f 31/21/1 32/22/1 7/23/1 5/24/1
f 32/21/1 33/22/1 9/23/1 7/24/1
f 33/21/1 34/22/1 11/23/1 9/24/1
f 34/21/1 35/22/1 13/23/1 11/24/1
f 35/21/1 36/22/1 15/23/1 13/24/1
f 36/21/1 37/22/1 17/23/1 15/24/1
f 37/21/1 38/22/1 19/23/1 17/24/1
f 38/21/1 39/22/1 21/23/1 19/24/1
f 39/21/1 40/22/1 23/23/1 21/24/1
f 40/21/1 41/22/1 25/23/1 23/24/1
f 41/25/1 42/26/1 27/27/1 25/28/1
f 43/29/1 44/30/1 30/31/1 29/32/1
f 44/33/1 45/34/1 31/35/1 30/36/1
f 45/33/1 46/34/1 32/35/1 31/36/1
f 46/33/1 47/34/1 33/35/1 32/36/1
f 47/33/1 48/34/1 34/35/1 33/36/1
f 48/33/1 49/34/1 35/35/1 34/36/1
f 49/33/1 50/34/1 36/35/1 35/36/1
f 50/33/1 51/34/1 37/35/1 36/36/1
f 51/33/1 52/34/1 38/35/1 37/36/1
f 52/33/1 53/34/1 39/35/1 38/36/1
f 53/33/1 54/34/1 40/35/1 39/36/1
f 54/33/1 55/34/1 41/35/1 40/36/1
f 55/37/1 56/38/1 42/39/1 41/40/1
f 57/1/1 58/2/1 59/3/1 60/4/1
f 58/5/1 61/6/1 62/7/1 59/8/1
f 61/5/1 63/6/1 64/7/1 62/8/1
f 63/5/1 65/6/1 66/7/1 64/8/1
f 65/5/1 67/6/1 68/7/1 66/8/1
f 67/5/1 69/6/1 70/7/1 68/8/1
f 69/13/1 71/14/1 72/15/1 70/16/1
f 73/1/1 74/2/1 75/3/1 76/4/1
f 74/5/1 77/6/1 78/7/1 75/8/1
f 77/5/1 79/6/1 80/7/1 78/8/1
f 79/5/1 81/6/1 82/7/1 80/8/1
f 81/9/1 83/10/1 84/11/1 82/12/1
f 83/5/1 85/6/1 86/7/1 84/8/1
f 85/13/1 87/14/1 88/15/1 86/16/1
f 89/17/1 90/18/1 58/19/1 57/20/1
f 90/21/1 91/22/1 61/23/1 58/24/1
f 91/21/1 92/22/1 63/23/1 61/24/1
f 92/21/1 93/22/1 65/23/1 63/24/1
f 93/21/1 94/22/1 67/23/1 65/24/1
f 94/21/1 95/22/1 69/23/1 67/24/1
f 95/25/1 96/26/1 71/27/1 69/28/1
f 97/17/1 98/18/1 74/19/1 73/20/1
f 98/21/1 99/22/1 77/23/1 74/24/1
f 99/21/1 100/22/1 79/23/1 77/24/1
f 100/21/1 101/22/1 81/23/1 79/24/1
f 101/21/1 102/22/1 83/23/1 81/24/1
f 102/21/1 103/22/1 85/23/1 83/24/1
f 103/25/1 104/26/1 87/27/1 85/28/1
f 105/29/1 106/30/1 90/31/1 89/32/1
f 106/33/1 107/34/1 91/35/1 90/36/1
f 107/33/1 108/34/1 92/35/1 91/36/1
f 108/33/1 109/34/1 93/35/1 92/36/1
f 109/33/1 110/34/1 94/35/1 93/36/1
f 110/33/1 111/34/1 95/35/1 94/36/1
f 111/37/1 112/38/1 96/39/1 95/40/1
f 113/29/1 114/30/1 98/31/1 97/32/1
f 114/33/1 115/34/1 99/35/1 98/36/1
f 115/33/1 116/34/1 100/35/1 99/36/1
f 116/33/1 117/34/1 101/35/1 100/36/1
f 117/33/1 118/34/1 102/35/1 101/36/1
f 118/33/1 119/34/1 103/35/1 102/36/1
f 119/37/1 120/38/1 104/39/1 103/40/1
f 121/1/1 122/2/1 123/3/1 124/4/1
f 122/5/1 125/6/1 126/7/1 123/8/1
f 125/13/1 127/14/1 128/15/1 126/16/1
f 129/17/1 130/18/1 122/19/1 121/20/1
f 130/21/1 131/22/1 125/23/1 122/24/1
f 131/25/1 132/26/1 127/27/1 125/28/1
f 133/17/1 134/18/1 130/19/1 129/20/1
f 134/21/1 135/22/1 131/23/1 130/24/1
f 135/25/1 136/26/1 132/27/1 131/28/1
f 137/1/1 138/2/1 139/3/1 140/4/1
f 138/5/1 141/6/1 142/7/1 139/8/1
f 141/5/1 143/6/1 144/7/1 142/8/1
f 143/5/1 145/6/1 146/7/1 144/8/1
f 145/5/1 147/6/1 148/7/1 146/8/1
f 147/5/1 149/6/1 150/7/1 148/8/1
f 149/5/1 151/6/1 133/7/1 150/8/1
f 151/21/1 152/22/1 134/23/1 133/24/1
f 152/21/1 153/22/1 135/23/1 134/24/1
f 153/21/1 154/22/1 136/23/1 135/24/1
f 154/5/1 155/6/1 156/7/1 136/8/1
f 155/5/1 157/6/1 158/7/1 156/8/1
f 157/5/1 159/6/1 160/7/1 158/8/1
f 159/9/1 161/10/1 162/11/1 160/12/1
f 161/5/1 163/6/1 164/7/1 162/8/1
f 163/13/1 165/14/1 166/15/1 164/16/1
f 167/17/1 168/18/1 138/19/1 137/20/1
f 168/21/1 169/22/1 141/23/1 138/24/1
f 169/21/1 170/22/1 143/23/1 141/24/1
f 170/21/1 171/22/1 145/23/1 143/24/1
f 171/21/1 172/22/1 147/23/1 145/24/1
f 172/21/1 173/22/1 149/23/1 147/24/1
f 173/21/1 174/22/1 151/23/1 149/24/1
f 174/21/1 175/22/1 152/23/1 151/24/1
f 175/21/1 176/22/1 153/23/1 152/24/1
f 176/21/1 177/22/1 154/23/1 153/24/1
f 177/21/1 178/22/1 155/23/1 154/24/1
f 178/21/1 179/22/1 157/23/1 155/24/1
f 179/21/1 180/22/1 159/23/1 157/24/1
f 180/21/1 181/22/1 161/23/1 159/24/1
f 181/21/1 182/22/1 163/23/1 161/24/1
f 182/25/1 183/26/1 165/27/1 163/28/1
f 184/29/1 185/30/1 168/31/1 167/32/1
f 185/33/1 186/34/1 169/35/1 168/36/1
f 186/33/1 187/34/1 170/35/1 169/36/1
f 187/33/1 188/34/1 171/35/1 170/36/1
f 188/33/1 189/34/1 172/35/1 171/36/1
f 189/33/1 190/34/1 173/35/1 172/36/1
f 190/33/1 191/34/1 174/35/1 173/36/1
f 191/33/1 192/34/1 175/35/1 174/36/1
f 192/33/1 193/34/1 176/35/1 175/36/1
f 193/33/1 194/34/1 177/35/1 176/36/1
f 194/33/1 195/34/1 178/35/1 177/36/1
f 195/33/1 196/34/1 179/35/1 178/36/1
f 196/33/1 197/34/1 180/35/1 179/36/1
f 197/33/1 198/34/1 181/35/1 180/36/1
f 198/33/1 199/34/1 182/35/1 181/36/1
f 199/37/1 200/38/1 183/39/1 182/40/1
f 201/1/1 202/2/1 203/3/1 204/4/1
f 202/5/1 205/6/1 206/7/1 203/8/1
f 205/13/1 207/14/1 208/15/1 206/16/1
f 209/17/1 210/18/1 202/19/1 201/20/1
f 210/21/1 211/22/1 205/23/1 202/24/1
f 211/25/1 212/26/1 207/27/1 205/28/1
f 213/17/1 214/18/1 210/19/1 209/20/1
f 214/21/1 215/22/1 211/23/1 210/24/1
f 215/25/1 216/26/1 212/27/1 211/28/1
f 217/17/1 218/18/1 214/19/1 213/20/1
f 218/21/1 219/22/1 215/23/1 214/24/1
f 219/25/1 220/26/1 216/27/1 215/28/1
f 221/1/1 222/2/1 223/3/1 224/4/1
f 222/5/1 225/6/1 226/7/1 223/8/1
f 225/5/1 227/6/1 228/7/1 226/8/1
f 227/5/1 229/6/1 230/7/1 228/8/1
f 229/5/1 231/6/1 232/7/1 230/8/1
f 231/5/1 233/6/1 234/7/1 232/8/1
f 233/5/1 235/6/1 217/7/1 234/8/1
f 235/21/1 236/22/1 218/23/1 217/24/1
f 236/21/1 237/22/1 219/23/1 218/24/1
f 237/21/1 238/22/1 220/23/1 219/24/1
f 238/5/1 239/6/1 240/7/1 220/8/1
f 239/5/1 241/6/1 242/7/1 240/8/1
f 241/5/1 243/6/1 244/7/1 242/8/1
f 243/5/1 245/6/1 246/7/1 244/8/1
f 245/5/1 247/6/1 248/7/1 246/8/1
f 247/5/1 249/6/1 250/7/1 248/8/1
f 249/5/1 251/6/1 252/7/1 250/8/1
f 251/5/1 253/6/1 254/7/1 252/8/1
f 253/5/1 255/6/1 256/7/1 254/8/1
f 255/9/1 257/10/1 258/11/1 256/12/1
f 257/5/1 259/6/1 260/7/1 258/8/1
f 259/13/1 261/14/1 262/15/1 260/16/1
f 263/17/1 264/18/1 222/19/1 221/20/1
f 264/21/1 265/22/1 225/23/1 222/24/1
f 265/21/1 266/22/1 227/23/1 225/24/1
f 266/21/1 267/22/1 229/23/1 227/24/1
f 267/21/1 268/22/1 231/23/1 229/24/1
f 268/21/1 269/22/1 233/23/1 231/24/1
f 269/21/1 270/22/1 235/23/1 233/24/1
f 270/21/1 271/22/1 236/23/1 235/24/1
f 271/21/1 272/22/1 237/23/1 236/24/1
f 272/21/1 273/22/1 238/23/1 237/24/1
f 273/21/1 274/22/1 239/23/1 238/24/1
f 274/21/1 275/22/1 241/23/1 239/24/1
f 275/21/1 276/22/1 243/23/1 241/24/1
f 276/21/1 277/22/1 245/23/1 243/24/1
f 277/21/1 278/22/1 247/23/1 245/24/1
f 278/21/1 279/22/1 249/23/1 247/24/1
f 279/21/1 280/22/1 251/23/1 249/24/1
f 280/21/1 281/22/1 253/23/1 251/24/1
f 281/21/1 282/22/1 255/23/1 253/24/1
f 282/21/1 283/22/1 257/23/1 255/24/1
f 283/21/1 284/22/1 259/23/1 257/24/1
f 284/25/1 285/26/1 261/27/1 259/28/1
f 286/29/1 287/30/1 264/31/1 263/32/1
f 287/33/1 288/34/1 265/35/1 264/36/1
f 288/33/1 289/34/1 266/35/1 265/36/1
f 289/33/1 290/34/1 267/35/1 266/36/1
f 290/33/1 291/34/1 268/35/1 267/36/1
f 291/33/1 292/34/1 269/35/1 268/36/1
f 292/33/1 293/34/1 270/35/1 269/36/1
f 293/33/1 294/34/1 271/35/1 270/36/1
f 294/33/1 295/34/1 272/35/1 271/36/1
f 295/33/1 296/34/1 273/35/1 272/36/1
f 296/33/1 297/34/1 274/35/1 273/36/1
f 297/33/1 298/34/1 275/35/1 274/36/1
f 298/33/1 299/34/1 276/35/1 275/36/1
f 299/33/1 300/34/1 277/35/1 276/36/1
f 300/33/1 301/34/1 278/35/1 277/36/1
f 301/33/1 302/34/1 279/35/1 278/36/1
f 302/33/1 303/34/1 280/35/1 279/36/1
f 303/33/1 304/34/1 281/35/1 280/36/1
f 304/33/1 305/34/1 282/35/1 281/36/1
f 305/33/1 306/34/1 283/35/1 282/36/1
f 306/33/1 307/34/1 284/35/1 283/36/1
f 307/37/1 308/38/1 285/39/1 284/40/1
f 309/1/1 310/2/1 311/3/1 312/4/1
f 310/5/1 313/6/1 314/7/1 311/8/1
f 313/5/1 315/6/1 316/7/1 314/8/1
f 315/9/1 317/10/1 318/11/1 316/12/1
f 317/5/1 319/6/1 320/7/1 318/8/1
f 319/13/1 321/14/1 322/15/1 320/16/1
f 323/17/1 324/18/1 310/19/1 309/20/1
f 324/21/1 325/22/1 313/23/1 310/24/1
f 325/21/1 326/22/1 315/23/1 313/24/1
f 326/21/1 327/22/1 317/23/1 315/24/1
f 327/21/1 328/22/1 319/23/1 317/24/1
f 328/25/1 329/26/1 321/27/1 319/28/1
f 330/17/1 331/18/1 324/19/1 323/20/1
f 331/21/1 332/22/1 325/23/1 324/24/1
f 332/21/1 333/22/1 326/23/1 325/24/1
f 333/21/1 334/22/1 327/23/1 326/24/1
f 334/21/1 335/22/1 328/23/1 327/24/1
f 335/25/1 336/26/1 329/27/1 328/28/1
f 337/17/1 338/18/1 331/19/1 330/20/1
f 338/21/1 339/22/1 332/23/1 331/24/1
f 339/21/1 340/22/1 333/23/1 332/24/1
f 340/21/1 341/22/1 334/23/1 333/24/1
f 341/21/1 342/22/1 335/23/1 334/24/1
f 342/25/1 343/26/1 336/27/1 335/28/1
f 344/1/1 345/2/1 346/3/1 347/4/1
f 345/5/1 348/6/1 349/7/1 346/8/1
f 348/5/1 350/6/1 351/7/1 349/8/1
f 350/5/1 352/6/1 353/7/1 351/8/1
f 352/5/1 354/6/1 355/7/1 353/8/1
f 354/5/1 356/6/1 357/7/1 355/8/1
f 356/13/1 358/14/1 359/15/1 357/16/1
f 360/1/1 361/2/1 362/3/1 363/4/1
f 361/5/1 364/6/1 365/7/1 362/8/1
f 364/5/1 366/6/1 367/7/1 365/8/1
f 366/5/1 368/6/1 369/7/1 367/8/1
f 368/5/1 370/6/1 371/7/1 369/8/1
f 370/5/1 372/6/1 373/7/1 371/8/1
f 372/5/1 374/6/1 337/7/1 373/8/1
f 374/21/1 375/22/1 338/23/1 337/24/1
f 375/21/1 376/22/1 339/23/1 338/24/1
f 376/21/1 377/22/1 340/23/1 339/24/1
f 377/21/1 378/22/1 341/23/1 340/24/1
f 378/21/1 379/22/1 342/23/1 341/24/1
f 379/25/1 380/26/1 343/27/1 342/28/1
f 381/17/1 382/18/1 345/19/1 344/20/1
f 382/21/1 383/22/1 348/23/1 345/24/1
f 383/21/1 384/22/1 350/23/1 348/24/1
f 384/21/1 385/22/1 352/23/1 350/24/1
f 385/21/1 386/22/1 354/23/1 352/24/1
f 386/21/1 387/22/1 356/23/1 354/24/1
f 387/25/1 388/26/1 358/27/1 356/28/1
f 389/17/1 390/18/1 361/19/1 360/20/1
f 390/21/1 391/22/1 364/23/1 361/24/1
f 391/21/1 392/22/1 366/23/1 364/24/1
f 392/21/1 393/22/1 368/23/1 366/24/1
f 393/21/1 394/22/1 370/23/1 368/24/1
f 394/21/1 395/22/1 372/23/1 370/24/1
f 395/21/1 396/22/1 374/23/1 372/24/1
f 396/21/1 397/22/1 375/23/1 374/24/1
f 397/21/1 398/22/1 376/23/1 375/24/1
f 398/21/1 399/22/1 377/23/1 376/24/1
f 399/21/1 400/22/1 378/23/1 377/24/1
f 400/21/1 401/22/1 379/23/1 378/24/1
f 401/25/1 402/26/1 380/27/1 379/28/1
f 403/29/1 404/30/1 382/31/1 381/32/1
f 404/33/1 405/34/1 383/35/1 382/36/1
f 405/33/1 406/34/1 384/35/1 383/36/1
f 406/33/1 407/34/1 385/35/1 384/36/1
f 407/33/1 408/34/1 386/35/1 385/36/1
f 408/33/1 409/34/1 387/35/1 386/36/1
f 409/37/1 410/38/1 388/39/1 387/40/1
f 411/29/1 412/30/1 390/31/1 389/32/1
f 412/33/1 413/34/1 391/35/1 390/36/1
f 413/33/1 414/34/1 392/35/1 391/36/1
f 414/33/1 415/34/1 393/35/1 392/36/1
f 415/33/1 416/34/1 394/35/1 393/36/1
f 416/33/1 417/34/1 395/35/1 394/36/1
f 417/33/1 418/34/1 396/35/1 395/36/1
f 418/33/1 419/34/1 397/35/1 396/36/1
f 419/33/1 420/34/1 398/35/1 397/36/1
f 420/33/1 421/34/1 399/35/1 398/36/1
f 421/33/1 422/34/1 400/35/1 399/36/1
f 422/33/1 423/34/1 401/35/1 400/36/1
f 423/37/1 424/38/1 402/39/1 401/40/1

