# Wavefront OBJ file automatically generated by Tiled2Unity

# Vertices (Count = 200)
v 0 -1 0
v -1 -1 0
v -1 0 0
v 0 0 0
v -2 -1 0
v -2 0 0
v -3 -1 0
v -3 0 0
v -4 -1 0
v -4 0 0
v -5 -1 0
v -5 0 0
v -6 -1 0
v -6 0 0
v -7 -1 0
v -7 0 0
v -8 -1 0
v -8 0 0
v -9 -1 0
v -9 0 0
v -10 -1 0
v -10 0 0
v -11 -1 0
v -11 0 0
v -12 -1 0
v -12 0 0
v -13 -1 0
v -13 0 0
v -14 -1 0
v -14 0 0
v -15 -1 0
v -15 0 0
v -16 -1 0
v -16 0 0
v -17 -1 0
v -17 0 0
v -18 -1 0
v -18 0 0
v -19 -1 0
v -19 0 0
v -20 -1 0
v -20 0 0
v -21 -1 0
v -21 0 0
v 0 -2 0
v -1 -2 0
v -2 -2 0
v -3 -2 0
v -4 -2 0
v -5 -2 0
v -6 -2 0
v -7 -2 0
v -8 -2 0
v -9 -2 0
v -10 -2 0
v -11 -2 0
v -12 -2 0
v -13 -2 0
v -14 -2 0
v -15 -2 0
v -16 -2 0
v -17 -2 0
v -18 -2 0
v -19 -2 0
v -20 -2 0
v -21 -2 0
v 0 -3 0
v -1 -3 0
v -2 -3 0
v -3 -3 0
v -4 -3 0
v -5 -3 0
v -6 -3 0
v -7 -3 0
v -8 -3 0
v -9 -3 0
v -10 -3 0
v -11 -3 0
v -12 -3 0
v -13 -3 0
v -14 -3 0
v -15 -3 0
v -16 -3 0
v -17 -3 0
v -18 -3 0
v -19 -3 0
v -20 -3 0
v -21 -3 0
v 0 -4 0
v -1 -4 0
v -2 -4 0
v -3 -4 0
v -18 -4 0
v -19 -4 0
v -20 -4 0
v -21 -4 0
v 0 -5 0
v -1 -5 0
v -2 -5 0
v -3 -5 0
v -18 -5 0
v -19 -5 0
v -20 -5 0
v -21 -5 0
v 0 -6 0
v -1 -6 0
v -2 -6 0
v -3 -6 0
v -18 -6 0
v -19 -6 0
v -20 -6 0
v -21 -6 0
v 0 -7 0
v -1 -7 0
v -2 -7 0
v -3 -7 0
v -18 -7 0
v -19 -7 0
v -20 -7 0
v -21 -7 0
v 0 -8 0
v -1 -8 0
v -2 -8 0
v -3 -8 0
v -4 -8 0
v -4 -7 0
v -5 -8 0
v -5 -7 0
v -6 -8 0
v -6 -7 0
v -7 -8 0
v -7 -7 0
v -8 -8 0
v -8 -7 0
v -9 -8 0
v -9 -7 0
v -10 -8 0
v -10 -7 0
v -11 -8 0
v -11 -7 0
v -12 -8 0
v -12 -7 0
v -13 -8 0
v -13 -7 0
v -14 -8 0
v -14 -7 0
v -15 -8 0
v -15 -7 0
v -16 -8 0
v -16 -7 0
v -17 -8 0
v -17 -7 0
v -18 -8 0
v -19 -8 0
v -20 -8 0
v -21 -8 0
v 0 -9 0
v -1 -9 0
v -2 -9 0
v -3 -9 0
v -4 -9 0
v -5 -9 0
v -6 -9 0
v -7 -9 0
v -8 -9 0
v -9 -9 0
v -10 -9 0
v -11 -9 0
v -12 -9 0
v -13 -9 0
v -14 -9 0
v -15 -9 0
v -16 -9 0
v -17 -9 0
v -18 -9 0
v -19 -9 0
v -20 -9 0
v -21 -9 0
v 0 -10 0
v -1 -10 0
v -2 -10 0
v -3 -10 0
v -4 -10 0
v -5 -10 0
v -6 -10 0
v -7 -10 0
v -8 -10 0
v -9 -10 0
v -10 -10 0
v -11 -10 0
v -12 -10 0
v -13 -10 0
v -14 -10 0
v -15 -10 0
v -16 -10 0
v -17 -10 0
v -18 -10 0
v -19 -10 0
v -20 -10 0
v -21 -10 0

# Texture cooridinates (Count = 56)
vt 0.5032471 0.8326221
vt 0.6280029 0.8326221
vt 0.6280029 0.9990446
vt 0.5032471 0.9990446
vt 0.1263721 0.8326221
vt 0.2511279 0.8326221
vt 0.2511279 0.9990446
vt 0.1263721 0.9990446
vt 0.6288721 0.8326221
vt 0.753628 0.8326221
vt 0.753628 0.9990446
vt 0.6288721 0.9990446
vt 0.2519971 0.8326221
vt 0.3767529 0.8326221
vt 0.3767529 0.9990446
vt 0.2519971 0.9990446
vt 0.0007470703 0.6651221
vt 0.1255029 0.6651221
vt 0.1255029 0.8315446
vt 0.0007470703 0.8315446
vt 0.1263721 0.6651221
vt 0.2511279 0.6651221
vt 0.2511279 0.8315446
vt 0.1263721 0.8315446
vt 0.2519971 0.6651221
vt 0.3767529 0.6651221
vt 0.3767529 0.8315446
vt 0.2519971 0.8315446
vt 0.3776221 0.8326221
vt 0.5023779 0.8326221
vt 0.5023779 0.9990446
vt 0.3776221 0.9990446
vt 0.0007470703 0.4976221
vt 0.1255029 0.4976221
vt 0.1255029 0.6640446
vt 0.0007470703 0.6640446
vt 0.3776221 0.6651221
vt 0.5023779 0.6651221
vt 0.5023779 0.8315446
vt 0.3776221 0.8315446
vt 0.1263721 0.4976221
vt 0.2511279 0.4976221
vt 0.2511279 0.6640446
vt 0.1263721 0.6640446
vt 0.2519971 0.4976221
vt 0.3767529 0.4976221
vt 0.3767529 0.6640446
vt 0.2519971 0.6640446
vt 0.5032471 0.6651221
vt 0.6280029 0.6651221
vt 0.6280029 0.8315446
vt 0.5032471 0.8315446
vt 0.6288721 0.6651221
vt 0.753628 0.6651221
vt 0.753628 0.8315446
vt 0.6288721 0.8315446

# Normal
vn 0 0 -1

# Groups (Count = 1)

g mesh_0001
f 1/1/1 2/2/1 3/3/1 4/4/1
f 2/5/1 5/6/1 6/7/1 3/8/1
f 5/5/1 7/6/1 8/7/1 6/8/1
f 7/5/1 9/6/1 10/7/1 8/8/1
f 9/5/1 11/6/1 12/7/1 10/8/1
f 11/5/1 13/6/1 14/7/1 12/8/1
f 13/5/1 15/6/1 16/7/1 14/8/1
f 15/5/1 17/6/1 18/7/1 16/8/1
f 17/5/1 19/6/1 20/7/1 18/8/1
f 19/5/1 21/6/1 22/7/1 20/8/1
f 21/5/1 23/6/1 24/7/1 22/8/1
f 23/5/1 25/6/1 26/7/1 24/8/1
f 25/5/1 27/6/1 28/7/1 26/8/1
f 27/5/1 29/6/1 30/7/1 28/8/1
f 29/5/1 31/6/1 32/7/1 30/8/1
f 31/5/1 33/6/1 34/7/1 32/8/1
f 33/5/1 35/6/1 36/7/1 34/8/1
f 35/5/1 37/6/1 38/7/1 36/8/1
f 37/5/1 39/6/1 40/7/1 38/8/1
f 39/5/1 41/6/1 42/7/1 40/8/1
f 41/9/1 43/10/1 44/11/1 42/12/1
f 45/13/1 46/14/1 2/15/1 1/16/1
f 46/17/1 47/18/1 5/19/1 2/20/1
f 47/21/1 48/22/1 7/23/1 5/24/1
f 48/25/1 49/26/1 9/27/1 7/28/1
f 49/17/1 50/18/1 11/19/1 9/20/1
f 50/21/1 51/22/1 13/23/1 11/24/1
f 51/21/1 52/22/1 15/23/1 13/24/1
f 52/21/1 53/22/1 17/23/1 15/24/1
f 53/21/1 54/22/1 19/23/1 17/24/1
f 54/21/1 55/22/1 21/23/1 19/24/1
f 55/21/1 56/22/1 23/23/1 21/24/1
f 56/21/1 57/22/1 25/23/1 23/24/1
f 57/21/1 58/22/1 27/23/1 25/24/1
f 58/21/1 59/22/1 29/23/1 27/24/1
f 59/17/1 60/18/1 31/19/1 29/20/1
f 60/21/1 61/22/1 33/23/1 31/24/1
f 61/21/1 62/22/1 35/23/1 33/24/1
f 62/21/1 63/22/1 37/23/1 35/24/1
f 63/25/1 64/26/1 39/27/1 37/28/1
f 64/21/1 65/22/1 41/23/1 39/24/1
f 65/29/1 66/30/1 43/31/1 41/32/1
f 67/13/1 68/14/1 46/15/1 45/16/1
f 68/21/1 69/22/1 47/23/1 46/24/1
f 69/21/1 70/22/1 48/23/1 47/24/1
f 70/33/1 71/34/1 49/35/1 48/36/1
f 71/33/1 72/34/1 50/35/1 49/36/1
f 72/33/1 73/34/1 51/35/1 50/36/1
f 73/37/1 74/38/1 52/39/1 51/40/1
f 74/25/1 75/26/1 53/27/1 52/28/1
f 75/25/1 76/26/1 54/27/1 53/28/1
f 76/33/1 77/34/1 55/35/1 54/36/1
f 77/33/1 78/34/1 56/35/1 55/36/1
f 78/33/1 79/34/1 57/35/1 56/36/1
f 79/33/1 80/34/1 58/35/1 57/36/1
f 80/33/1 81/34/1 59/35/1 58/36/1
f 81/33/1 82/34/1 60/35/1 59/36/1
f 82/33/1 83/34/1 61/35/1 60/36/1
f 83/33/1 84/34/1 62/35/1 61/36/1
f 84/21/1 85/22/1 63/23/1 62/24/1
f 85/17/1 86/18/1 64/19/1 63/20/1
f 86/21/1 87/22/1 65/23/1 64/24/1
f 87/29/1 88/30/1 66/31/1 65/32/1
f 89/13/1 90/14/1 68/15/1 67/16/1
f 90/21/1 91/22/1 69/23/1 68/24/1
f 91/29/1 92/30/1 70/31/1 69/32/1
f 93/13/1 94/14/1 86/15/1 85/16/1
f 94/25/1 95/26/1 87/27/1 86/28/1
f 95/29/1 96/30/1 88/31/1 87/32/1
f 97/13/1 98/14/1 90/15/1 89/16/1
f 98/37/1 99/38/1 91/39/1 90/40/1
f 99/29/1 100/30/1 92/31/1 91/32/1
f 101/13/1 102/14/1 94/15/1 93/16/1
f 102/17/1 103/18/1 95/19/1 94/20/1
f 103/21/1 104/22/1 96/23/1 95/24/1
f 105/13/1 106/14/1 98/15/1 97/16/1
f 106/21/1 107/22/1 99/23/1 98/24/1
f 107/29/1 108/30/1 100/31/1 99/32/1
f 109/13/1 110/14/1 102/15/1 101/16/1
f 110/25/1 111/26/1 103/27/1 102/28/1
f 111/29/1 112/30/1 104/31/1 103/32/1
f 113/13/1 114/14/1 106/15/1 105/16/1
f 114/21/1 115/22/1 107/23/1 106/24/1
f 115/29/1 116/30/1 108/31/1 107/32/1
f 117/13/1 118/14/1 110/15/1 109/16/1
f 118/21/1 119/22/1 111/23/1 110/24/1
f 119/29/1 120/30/1 112/31/1 111/32/1
f 121/13/1 122/14/1 114/15/1 113/16/1
f 122/25/1 123/26/1 115/27/1 114/28/1
f 123/21/1 124/22/1 116/23/1 115/24/1
f 124/5/1 125/6/1 126/7/1 116/8/1
f 125/5/1 127/6/1 128/7/1 126/8/1
f 127/5/1 129/6/1 130/7/1 128/8/1
f 129/5/1 131/6/1 132/7/1 130/8/1
f 131/5/1 133/6/1 134/7/1 132/8/1
f 133/5/1 135/6/1 136/7/1 134/8/1
f 135/5/1 137/6/1 138/7/1 136/8/1
f 137/5/1 139/6/1 140/7/1 138/8/1
f 139/5/1 141/6/1 142/7/1 140/8/1
f 141/5/1 143/6/1 144/7/1 142/8/1
f 143/5/1 145/6/1 146/7/1 144/8/1
f 145/5/1 147/6/1 148/7/1 146/8/1
f 147/41/1 149/42/1 150/43/1 148/44/1
f 149/45/1 151/46/1 152/47/1 150/48/1
f 151/5/1 153/6/1 117/7/1 152/8/1
f 153/21/1 154/22/1 118/23/1 117/24/1
f 154/21/1 155/22/1 119/23/1 118/24/1
f 155/29/1 156/30/1 120/31/1 119/32/1
f 157/13/1 158/14/1 122/15/1 121/16/1
f 158/37/1 159/38/1 123/39/1 122/40/1
f 159/25/1 160/26/1 124/27/1 123/28/1
f 160/17/1 161/18/1 125/19/1 124/20/1
f 161/21/1 162/22/1 127/23/1 125/24/1
f 162/25/1 163/26/1 129/27/1 127/28/1
f 163/21/1 164/22/1 131/23/1 129/24/1
f 164/21/1 165/22/1 133/23/1 131/24/1
f 165/21/1 166/22/1 135/23/1 133/24/1
f 166/21/1 167/22/1 137/23/1 135/24/1
f 167/25/1 168/26/1 139/27/1 137/28/1
f 168/21/1 169/22/1 141/23/1 139/24/1
f 169/17/1 170/18/1 143/19/1 141/20/1
f 170/37/1 171/38/1 145/39/1 143/40/1
f 171/37/1 172/38/1 147/39/1 145/40/1
f 172/17/1 173/18/1 149/19/1 147/20/1
f 173/21/1 174/22/1 151/23/1 149/24/1
f 174/37/1 175/38/1 153/39/1 151/40/1
f 175/17/1 176/18/1 154/19/1 153/20/1
f 176/21/1 177/22/1 155/23/1 154/24/1
f 177/29/1 178/30/1 156/31/1 155/32/1
f 179/49/1 180/50/1 158/51/1 157/52/1
f 180/33/1 181/34/1 159/35/1 158/36/1
f 181/33/1 182/34/1 160/35/1 159/36/1
f 182/33/1 183/34/1 161/35/1 160/36/1
f 183/33/1 184/34/1 162/35/1 161/36/1
f 184/33/1 185/34/1 163/35/1 162/36/1
f 185/33/1 186/34/1 164/35/1 163/36/1
f 186/33/1 187/34/1 165/35/1 164/36/1
f 187/33/1 188/34/1 166/35/1 165/36/1
f 188/33/1 189/34/1 167/35/1 166/36/1
f 189/33/1 190/34/1 168/35/1 167/36/1
f 190/17/1 191/18/1 169/19/1 168/20/1
f 191/17/1 192/18/1 170/19/1 169/20/1
f 192/33/1 193/34/1 171/35/1 170/36/1
f 193/33/1 194/34/1 172/35/1 171/36/1
f 194/33/1 195/34/1 173/35/1 172/36/1
f 195/33/1 196/34/1 174/35/1 173/36/1
f 196/33/1 197/34/1 175/35/1 174/36/1
f 197/33/1 198/34/1 176/35/1 175/36/1
f 198/33/1 199/34/1 177/35/1 176/36/1
f 199/53/1 200/54/1 178/55/1 177/56/1

