# Wavefront OBJ file automatically generated by Tiled2Unity

# Vertices (Count = 52)
v 0 -12 0
v -1 -12 0
v -1 -11 0
v 0 -11 0
v -2 -12 0
v -2 -11 0
v -3 -12 0
v -3 -11 0
v -4 -12 0
v -4 -11 0
v -5 -12 0
v -5 -11 0
v -6 -12 0
v -6 -11 0
v -7 -12 0
v -7 -11 0
v -8 -12 0
v -8 -11 0
v -9 -12 0
v -9 -11 0
v -10 -12 0
v -10 -11 0
v -11 -12 0
v -11 -11 0
v -12 -12 0
v -12 -11 0
v 0 -13 0
v -1 -13 0
v -2 -13 0
v -3 -13 0
v -4 -13 0
v -5 -13 0
v -6 -13 0
v -7 -13 0
v -8 -13 0
v -9 -13 0
v -10 -13 0
v -11 -13 0
v -12 -13 0
v 0 -14 0
v -1 -14 0
v -2 -14 0
v -3 -14 0
v -4 -14 0
v -5 -14 0
v -6 -14 0
v -7 -14 0
v -8 -14 0
v -9 -14 0
v -10 -14 0
v -11 -14 0
v -12 -14 0

# Texture cooridinates (Count = 28)
vt 0.0001220703 0.8334554
vt 0.1248779 0.8334554
vt 0.1248779 0.9998779
vt 0.0001220703 0.9998779
vt 0.1251221 0.8334554
vt 0.2498779 0.8334554
vt 0.2498779 0.9998779
vt 0.1251221 0.9998779
vt 0.3751221 0.8334554
vt 0.4998779 0.8334554
vt 0.4998779 0.9998779
vt 0.3751221 0.9998779
vt 0.0001220703 0.6667888
vt 0.1248779 0.6667888
vt 0.1248779 0.8332112
vt 0.0001220703 0.8332112
vt 0.1251221 0.6667888
vt 0.2498779 0.6667888
vt 0.2498779 0.8332112
vt 0.1251221 0.8332112
vt 0.0001220703 0.5001221
vt 0.1248779 0.5001221
vt 0.1248779 0.6665446
vt 0.0001220703 0.6665446
vt 0.1251221 0.5001221
vt 0.2498779 0.5001221
vt 0.2498779 0.6665446
vt 0.1251221 0.6665446

# Normal
vn 0 0 -1

# Groups (Count = 1)

g mesh_0001
f 1/1/1 2/2/1 3/3/1 4/4/1
f 2/5/1 5/6/1 6/7/1 3/8/1
f 5/5/1 7/6/1 8/7/1 6/8/1
f 7/5/1 9/6/1 10/7/1 8/8/1
f 9/5/1 11/6/1 12/7/1 10/8/1
f 11/5/1 13/6/1 14/7/1 12/8/1
f 13/5/1 15/6/1 16/7/1 14/8/1
f 15/5/1 17/6/1 18/7/1 16/8/1
f 17/5/1 19/6/1 20/7/1 18/8/1
f 19/5/1 21/6/1 22/7/1 20/8/1
f 21/9/1 23/10/1 24/11/1 22/12/1
f 23/5/1 25/6/1 26/7/1 24/8/1
f 27/13/1 28/14/1 2/15/1 1/16/1
f 28/17/1 29/18/1 5/19/1 2/20/1
f 29/17/1 30/18/1 7/19/1 5/20/1
f 30/17/1 31/18/1 9/19/1 7/20/1
f 31/17/1 32/18/1 11/19/1 9/20/1
f 32/17/1 33/18/1 13/19/1 11/20/1
f 33/17/1 34/18/1 15/19/1 13/20/1
f 34/17/1 35/18/1 17/19/1 15/20/1
f 35/17/1 36/18/1 19/19/1 17/20/1
f 36/17/1 37/18/1 21/19/1 19/20/1
f 37/17/1 38/18/1 23/19/1 21/20/1
f 38/17/1 39/18/1 25/19/1 23/20/1
f 40/21/1 41/22/1 28/23/1 27/24/1
f 41/25/1 42/26/1 29/27/1 28/28/1
f 42/25/1 43/26/1 30/27/1 29/28/1
f 43/25/1 44/26/1 31/27/1 30/28/1
f 44/25/1 45/26/1 32/27/1 31/28/1
f 45/25/1 46/26/1 33/27/1 32/28/1
f 46/25/1 47/26/1 34/27/1 33/28/1
f 47/25/1 48/26/1 35/27/1 34/28/1
f 48/25/1 49/26/1 36/27/1 35/28/1
f 49/25/1 50/26/1 37/27/1 36/28/1
f 50/25/1 51/26/1 38/27/1 37/28/1
f 51/25/1 52/26/1 39/27/1 38/28/1

