# Wavefront OBJ file automatically generated by Tiled2Unity

# Vertices (Count = 108)
v -6.72 -3.2 0
v -7.04 -3.2 0
v -7.04 -2.88 0
v -6.72 -2.88 0
v -7.36 -3.2 0
v -7.36 -2.88 0
v -7.68 -3.2 0
v -7.68 -2.88 0
v -8 -3.2 0
v -8 -2.88 0
v -8.32 -3.2 0
v -8.32 -2.88 0
v -6.72 -3.52 0
v -7.04 -3.52 0
v -7.36 -3.52 0
v -7.68 -3.52 0
v -8 -3.52 0
v -8.32 -3.52 0
v -6.72 -3.84 0
v -7.04 -3.84 0
v -7.36 -3.84 0
v -7.68 -3.84 0
v -8 -3.84 0
v -8.32 -3.84 0
v -6.72 -4.16 0
v -7.04 -4.16 0
v -7.36 -4.16 0
v -7.68 -4.16 0
v -8 -4.16 0
v -8.32 -4.16 0
v -6.72 -4.48 0
v -7.04 -4.48 0
v -7.36 -4.48 0
v -7.68 -4.48 0
v -8 -4.48 0
v -8.32 -4.48 0
v -0.96 -4.8 0
v -1.28 -4.8 0
v -1.28 -4.48 0
v -0.96 -4.48 0
v -1.6 -4.8 0
v -1.6 -4.48 0
v -1.92 -4.8 0
v -1.92 -4.48 0
v -2.24 -4.8 0
v -2.24 -4.48 0
v -2.56 -4.8 0
v -2.56 -4.48 0
v -2.88 -4.8 0
v -2.88 -4.48 0
v -3.2 -4.8 0
v -3.2 -4.48 0
v -3.52 -4.8 0
v -3.52 -4.48 0
v -3.84 -4.8 0
v -3.84 -4.48 0
v -4.16 -4.8 0
v -4.16 -4.48 0
v -4.48 -4.8 0
v -4.48 -4.48 0
v -4.8 -4.8 0
v -4.8 -4.48 0
v -5.12 -4.8 0
v -5.12 -4.48 0
v -5.44 -4.8 0
v -5.44 -4.48 0
v -5.76 -4.8 0
v -5.76 -4.48 0
v -6.08 -4.8 0
v -6.08 -4.48 0
v -6.4 -4.8 0
v -6.4 -4.48 0
v -0.96 -5.12 0
v -1.28 -5.12 0
v -1.6 -5.12 0
v -1.92 -5.12 0
v -2.24 -5.12 0
v -2.56 -5.12 0
v -2.88 -5.12 0
v -3.2 -5.12 0
v -3.52 -5.12 0
v -3.84 -5.12 0
v -4.16 -5.12 0
v -4.48 -5.12 0
v -4.8 -5.12 0
v -5.12 -5.12 0
v -5.44 -5.12 0
v -5.76 -5.12 0
v -6.08 -5.12 0
v -6.4 -5.12 0
v -8.32 -5.12 0
v -8.639999 -5.12 0
v -8.639999 -4.8 0
v -8.32 -4.8 0
v -8.96 -5.12 0
v -8.96 -4.8 0
v -9.28 -5.12 0
v -9.28 -4.8 0
v -9.599999 -5.12 0
v -9.599999 -4.8 0
v -9.92 -5.12 0
v -9.92 -4.8 0
v -8.32 -5.44 0
v -8.639999 -5.44 0
v -8.96 -5.44 0
v -9.28 -5.44 0
v -9.599999 -5.44 0
v -9.92 -5.44 0

# Texture cooridinates (Count = 16)
vt 0.1601221 0.840122
vt 0.3198779 0.840122
vt 0.3198779 0.9998779
vt 0.1601221 0.9998779
vt 0.1601221 0.6801221
vt 0.3198779 0.6801221
vt 0.3198779 0.8398779
vt 0.1601221 0.8398779
vt 0.4801221 0.840122
vt 0.6398779 0.840122
vt 0.6398779 0.9998779
vt 0.4801221 0.9998779
vt 0.4801221 0.6801221
vt 0.6398779 0.6801221
vt 0.6398779 0.8398779
vt 0.4801221 0.8398779

# Normal
vn 0 0 -1

# Groups (Count = 1)

g mesh_0001
f 1/1/1 2/2/1 3/3/1 4/4/1
f 2/1/1 5/2/1 6/3/1 3/4/1
f 5/1/1 7/2/1 8/3/1 6/4/1
f 7/1/1 9/2/1 10/3/1 8/4/1
f 9/1/1 11/2/1 12/3/1 10/4/1
f 13/5/1 14/6/1 2/7/1 1/8/1
f 14/5/1 15/6/1 5/7/1 2/8/1
f 15/5/1 16/6/1 7/7/1 5/8/1
f 16/5/1 17/6/1 9/7/1 7/8/1
f 17/5/1 18/6/1 11/7/1 9/8/1
f 19/5/1 20/6/1 14/7/1 13/8/1
f 20/5/1 21/6/1 15/7/1 14/8/1
f 21/5/1 22/6/1 16/7/1 15/8/1
f 22/5/1 23/6/1 17/7/1 16/8/1
f 23/5/1 24/6/1 18/7/1 17/8/1
f 25/5/1 26/6/1 20/7/1 19/8/1
f 26/5/1 27/6/1 21/7/1 20/8/1
f 27/5/1 28/6/1 22/7/1 21/8/1
f 28/5/1 29/6/1 23/7/1 22/8/1
f 29/5/1 30/6/1 24/7/1 23/8/1
f 31/5/1 32/6/1 26/7/1 25/8/1
f 32/5/1 33/6/1 27/7/1 26/8/1
f 33/5/1 34/6/1 28/7/1 27/8/1
f 34/5/1 35/6/1 29/7/1 28/8/1
f 35/5/1 36/6/1 30/7/1 29/8/1
f 37/1/1 38/2/1 39/3/1 40/4/1
f 38/1/1 41/2/1 42/3/1 39/4/1
f 41/1/1 43/2/1 44/3/1 42/4/1
f 43/1/1 45/2/1 46/3/1 44/4/1
f 45/1/1 47/2/1 48/3/1 46/4/1
f 47/1/1 49/2/1 50/3/1 48/4/1
f 49/1/1 51/2/1 52/3/1 50/4/1
f 51/1/1 53/2/1 54/3/1 52/4/1
f 53/9/1 55/10/1 56/11/1 54/12/1
f 55/1/1 57/2/1 58/3/1 56/4/1
f 57/1/1 59/2/1 60/3/1 58/4/1
f 59/1/1 61/2/1 62/3/1 60/4/1
f 61/1/1 63/2/1 64/3/1 62/4/1
f 63/1/1 65/2/1 66/3/1 64/4/1
f 65/1/1 67/2/1 68/3/1 66/4/1
f 67/1/1 69/2/1 70/3/1 68/4/1
f 69/1/1 71/2/1 72/3/1 70/4/1
f 73/5/1 74/6/1 38/7/1 37/8/1
f 74/5/1 75/6/1 41/7/1 38/8/1
f 75/5/1 76/6/1 43/7/1 41/8/1
f 76/5/1 77/6/1 45/7/1 43/8/1
f 77/5/1 78/6/1 47/7/1 45/8/1
f 78/5/1 79/6/1 49/7/1 47/8/1
f 79/5/1 80/6/1 51/7/1 49/8/1
f 80/5/1 81/6/1 53/7/1 51/8/1
f 81/13/1 82/14/1 55/15/1 53/16/1
f 82/5/1 83/6/1 57/7/1 55/8/1
f 83/5/1 84/6/1 59/7/1 57/8/1
f 84/5/1 85/6/1 61/7/1 59/8/1
f 85/5/1 86/6/1 63/7/1 61/8/1
f 86/5/1 87/6/1 65/7/1 63/8/1
f 87/5/1 88/6/1 67/7/1 65/8/1
f 88/5/1 89/6/1 69/7/1 67/8/1
f 89/5/1 90/6/1 71/7/1 69/8/1
f 91/1/1 92/2/1 93/3/1 94/4/1
f 92/1/1 95/2/1 96/3/1 93/4/1
f 95/1/1 97/2/1 98/3/1 96/4/1
f 97/1/1 99/2/1 100/3/1 98/4/1
f 99/1/1 101/2/1 102/3/1 100/4/1
f 103/5/1 104/6/1 92/7/1 91/8/1
f 104/5/1 105/6/1 95/7/1 92/8/1
f 105/5/1 106/6/1 97/7/1 95/8/1
f 106/5/1 107/6/1 99/7/1 97/8/1
f 107/5/1 108/6/1 101/7/1 99/8/1

