# Wavefront OBJ file automatically generated by Tiled2Unity

# Vertices (Count = 52)
v -11 -2 0
v -12 -2 0
v -12 -1 0
v -11 -1 0
v -11 -3 0
v -12 -3 0
v -11 -4 0
v -12 -4 0
v -11 -5 0
v -12 -5 0
v -2 -6 0
v -3 -6 0
v -3 -5 0
v -2 -5 0
v -4 -6 0
v -4 -5 0
v -5 -6 0
v -5 -5 0
v -6 -6 0
v -6 -5 0
v -7 -6 0
v -7 -5 0
v -8 -6 0
v -8 -5 0
v -9 -6 0
v -9 -5 0
v -11 -6 0
v -12 -6 0
v -13 -6 0
v -13 -5 0
v -14 -6 0
v -14 -5 0
v -15 -6 0
v -15 -5 0
v -16 -6 0
v -16 -5 0
v -17 -6 0
v -17 -5 0
v -18 -6 0
v -18 -5 0
v -8 -9 0
v -9 -9 0
v -9 -8 0
v -8 -8 0
v -10 -9 0
v -10 -8 0
v -11 -9 0
v -11 -8 0
v -12 -9 0
v -12 -8 0
v -13 -9 0
v -13 -8 0

# Texture cooridinates (Count = 4)
vt 0.0001220703 0.0001220703
vt 0.9998779 0.0001220703
vt 0.9998779 0.9998779
vt 0.0001220703 0.9998779

# Normal
vn 0 0 -1

# Groups (Count = 1)

g mesh_0001
f 1/1/1 2/2/1 3/3/1 4/4/1
f 5/1/1 6/2/1 2/3/1 1/4/1
f 7/1/1 8/2/1 6/3/1 5/4/1
f 9/1/1 10/2/1 8/3/1 7/4/1
f 11/1/1 12/2/1 13/3/1 14/4/1
f 12/1/1 15/2/1 16/3/1 13/4/1
f 15/1/1 17/2/1 18/3/1 16/4/1
f 17/1/1 19/2/1 20/3/1 18/4/1
f 19/1/1 21/2/1 22/3/1 20/4/1
f 21/1/1 23/2/1 24/3/1 22/4/1
f 23/1/1 25/2/1 26/3/1 24/4/1
f 27/1/1 28/2/1 10/3/1 9/4/1
f 28/1/1 29/2/1 30/3/1 10/4/1
f 29/1/1 31/2/1 32/3/1 30/4/1
f 31/1/1 33/2/1 34/3/1 32/4/1
f 33/1/1 35/2/1 36/3/1 34/4/1
f 35/1/1 37/2/1 38/3/1 36/4/1
f 37/1/1 39/2/1 40/3/1 38/4/1
f 41/1/1 42/2/1 43/3/1 44/4/1
f 42/1/1 45/2/1 46/3/1 43/4/1
f 45/1/1 47/2/1 48/3/1 46/4/1
f 47/1/1 49/2/1 50/3/1 48/4/1
f 49/1/1 51/2/1 52/3/1 50/4/1

