# Wavefront OBJ file automatically generated by Tiled2Unity

# Vertices (Count = 46)
v -22 -16 0
v -24 -16 0
v -24 -14 0
v -22 -14 0
v -22 -18 0
v -24 -18 0
v -22 -20 0
v -24 -20 0
v -22 -22 0
v -24 -22 0
v -23 -22 0
v -25 -22 0
v -25 -20 0
v -23 -20 0
v -26 -22 0
v -26 -20 0
v -27 -22 0
v -27 -20 0
v -28 -22 0
v -28 -20 0
v -29 -22 0
v -29 -20 0
v -30 -22 0
v -30 -20 0
v -10 -23 0
v -12 -23 0
v -12 -21 0
v -10 -21 0
v -11 -23 0
v -13 -23 0
v -13 -21 0
v -11 -21 0
v -14 -23 0
v -14 -21 0
v -15 -23 0
v -15 -21 0
v -16 -23 0
v -16 -21 0
v -17 -23 0
v -17 -21 0
v -18 -23 0
v -18 -21 0
v -19 -23 0
v -19 -21 0
v -20 -23 0
v -20 -21 0

# Texture cooridinates (Count = 4)
vt 0.0001220703 0.0001220703
vt 0.9998779 0.0001220703
vt 0.9998779 0.9998779
vt 0.0001220703 0.9998779

# Normal
vn 0 0 -1

# Groups (Count = 1)

g mesh_0001
f 1/1/1 2/2/1 3/3/1 4/4/1
f 5/1/1 6/2/1 2/3/1 1/4/1
f 7/1/1 8/2/1 6/3/1 5/4/1
f 9/1/1 10/2/1 8/3/1 7/4/1
f 11/1/1 12/2/1 13/3/1 14/4/1
f 10/1/1 15/2/1 16/3/1 8/4/1
f 12/1/1 17/2/1 18/3/1 13/4/1
f 15/1/1 19/2/1 20/3/1 16/4/1
f 17/1/1 21/2/1 22/3/1 18/4/1
f 19/1/1 23/2/1 24/3/1 20/4/1
f 25/1/1 26/2/1 27/3/1 28/4/1
f 29/1/1 30/2/1 31/3/1 32/4/1
f 26/1/1 33/2/1 34/3/1 27/4/1
f 30/1/1 35/2/1 36/3/1 31/4/1
f 33/1/1 37/2/1 38/3/1 34/4/1
f 35/1/1 39/2/1 40/3/1 36/4/1
f 37/1/1 41/2/1 42/3/1 38/4/1
f 39/1/1 43/2/1 44/3/1 40/4/1
f 41/1/1 45/2/1 46/3/1 42/4/1

