# Wavefront OBJ file automatically generated by Tiled2Unity

# Vertices (Count = 192)
v 0 -1 0
v -1 -1 0
v -1 0 0
v 0 0 0
v -2 -1 0
v -2 0 0
v -3 -1 0
v -3 0 0
v -4 -1 0
v -4 0 0
v -5 -1 0
v -5 0 0
v -6 -1 0
v -6 0 0
v -7 -1 0
v -7 0 0
v -8 -1 0
v -8 0 0
v -9 -1 0
v -9 0 0
v -10 -1 0
v -10 0 0
v -11 -1 0
v -11 0 0
v -12 -1 0
v -12 0 0
v -13 -1 0
v -13 0 0
v -14 -1 0
v -14 0 0
v -15 -1 0
v -15 0 0
v -16 -1 0
v -16 0 0
v -17 -1 0
v -17 0 0
v -18 -1 0
v -18 0 0
v -19 -1 0
v -19 0 0
v 0 -2 0
v -1 -2 0
v -2 -2 0
v -3 -2 0
v -4 -2 0
v -5 -2 0
v -6 -2 0
v -7 -2 0
v -8 -2 0
v -9 -2 0
v -10 -2 0
v -11 -2 0
v -12 -2 0
v -13 -2 0
v -14 -2 0
v -15 -2 0
v -16 -2 0
v -17 -2 0
v -18 -2 0
v -19 -2 0
v 0 -3 0
v -1 -3 0
v -2 -3 0
v -3 -3 0
v -4 -3 0
v -5 -3 0
v -6 -3 0
v -7 -3 0
v -8 -3 0
v -9 -3 0
v -10 -3 0
v -11 -3 0
v -12 -3 0
v -13 -3 0
v -14 -3 0
v -15 -3 0
v -16 -3 0
v -17 -3 0
v -18 -3 0
v -19 -3 0
v 0 -4 0
v -1 -4 0
v -2 -4 0
v -3 -4 0
v -16 -4 0
v -17 -4 0
v -18 -4 0
v -19 -4 0
v 0 -5 0
v -1 -5 0
v -2 -5 0
v -3 -5 0
v -16 -5 0
v -17 -5 0
v -18 -5 0
v -19 -5 0
v 0 -6 0
v -1 -6 0
v -2 -6 0
v -3 -6 0
v -16 -6 0
v -17 -6 0
v -18 -6 0
v -19 -6 0
v 0 -7 0
v -1 -7 0
v -2 -7 0
v -3 -7 0
v -16 -7 0
v -17 -7 0
v -18 -7 0
v -19 -7 0
v 0 -8 0
v -1 -8 0
v -2 -8 0
v -3 -8 0
v -16 -8 0
v -17 -8 0
v -18 -8 0
v -19 -8 0
v 0 -9 0
v -1 -9 0
v -2 -9 0
v -3 -9 0
v -4 -9 0
v -4 -8 0
v -5 -9 0
v -5 -8 0
v -6 -9 0
v -6 -8 0
v -7 -9 0
v -7 -8 0
v -8 -9 0
v -8 -8 0
v -9 -9 0
v -9 -8 0
v -10 -9 0
v -10 -8 0
v -11 -9 0
v -11 -8 0
v -12 -9 0
v -12 -8 0
v -13 -9 0
v -13 -8 0
v -14 -9 0
v -14 -8 0
v -15 -9 0
v -15 -8 0
v -16 -9 0
v -17 -9 0
v -18 -9 0
v -19 -9 0
v 0 -10 0
v -1 -10 0
v -2 -10 0
v -3 -10 0
v -4 -10 0
v -5 -10 0
v -6 -10 0
v -7 -10 0
v -8 -10 0
v -9 -10 0
v -10 -10 0
v -11 -10 0
v -12 -10 0
v -13 -10 0
v -14 -10 0
v -15 -10 0
v -16 -10 0
v -17 -10 0
v -18 -10 0
v -19 -10 0
v 0 -11 0
v -1 -11 0
v -2 -11 0
v -3 -11 0
v -4 -11 0
v -5 -11 0
v -6 -11 0
v -7 -11 0
v -8 -11 0
v -9 -11 0
v -10 -11 0
v -11 -11 0
v -12 -11 0
v -13 -11 0
v -14 -11 0
v -15 -11 0
v -16 -11 0
v -17 -11 0
v -18 -11 0
v -19 -11 0

# Texture cooridinates (Count = 57)
vt 0.5001221 0.8334554
vt 0.6248779 0.8334554
vt 0.6248779 0.9998779
vt 0.5001221 0.9998779
vt 0.1251221 0.8334554
vt 0.2498779 0.8334554
vt 0.2498779 0.9998779
vt 0.1251221 0.9998779
vt 0.2501221 0.6667888
vt 0.3748779 0.6667888
vt 0.3748779 0.8332112
vt 0.2501221 0.8332112
vt 0.6251221 0.8334554
vt 0.7498779 0.8334554
vt 0.7498779 0.9998779
vt 0.6251221 0.9998779
vt 0.2501221 0.8334554
vt 0.3748779 0.8334554
vt 0.3748779 0.9998779
vt 0.2501221 0.9998779
vt 0.1251221 0.6667888
vt 0.2498779 0.6667888
vt 0.2498779 0.8332112
vt 0.1251221 0.8332112
vt 0.3751221 0.6667888
vt 0.4998779 0.6667888
vt 0.4998779 0.8332112
vt 0.3751221 0.8332112
vt 0.0001220703 0.6667888
vt 0.1248779 0.6667888
vt 0.1248779 0.8332112
vt 0.0001220703 0.8332112
vt 0.2501221 0.6665446
vt 0.1248779 0.8334554
vt 0.1248779 0.6665446
vt 0.3751221 0.8334554
vt 0.4998779 0.8334554
vt 0.4998779 0.9998779
vt 0.3751221 0.9998779
vt 0.0001220703 0.5001221
vt 0.1248779 0.5001221
vt 0.0001220703 0.6665446
vt 0.1251221 0.5001221
vt 0.2498779 0.5001221
vt 0.2498779 0.6665446
vt 0.1251221 0.6665446
vt 0.2501221 0.5001221
vt 0.3748779 0.5001221
vt 0.3748779 0.6665446
vt 0.7501221 0.8334554
vt 0.8748779 0.8334554
vt 0.8748779 0.9998779
vt 0.7501221 0.9998779
vt 0.7501221 0.6667888
vt 0.8748779 0.6667888
vt 0.8748779 0.8332112
vt 0.7501221 0.8332112

# Normal
vn 0 0 -1

# Groups (Count = 1)

g mesh_0001
f 1/1/1 2/2/1 3/3/1 4/4/1
f 2/5/1 5/6/1 6/7/1 3/8/1
f 5/5/1 7/6/1 8/7/1 6/8/1
f 7/5/1 9/6/1 10/7/1 8/8/1
f 9/5/1 11/6/1 12/7/1 10/8/1
f 11/5/1 13/6/1 14/7/1 12/8/1
f 13/5/1 15/6/1 16/7/1 14/8/1
f 15/5/1 17/6/1 18/7/1 16/8/1
f 17/5/1 19/6/1 20/7/1 18/8/1
f 19/9/1 21/10/1 22/11/1 20/12/1
f 21/5/1 23/6/1 24/7/1 22/8/1
f 23/5/1 25/6/1 26/7/1 24/8/1
f 25/5/1 27/6/1 28/7/1 26/8/1
f 27/5/1 29/6/1 30/7/1 28/8/1
f 29/5/1 31/6/1 32/7/1 30/8/1
f 31/5/1 33/6/1 34/7/1 32/8/1
f 33/5/1 35/6/1 36/7/1 34/8/1
f 35/5/1 37/6/1 38/7/1 36/8/1
f 37/13/1 39/14/1 40/15/1 38/16/1
f 41/17/1 42/18/1 2/19/1 1/20/1
f 42/21/1 43/22/1 5/23/1 2/24/1
f 43/25/1 44/26/1 7/27/1 5/28/1
f 44/21/1 45/22/1 9/23/1 7/24/1
f 45/21/1 46/22/1 11/23/1 9/24/1
f 46/21/1 47/22/1 13/23/1 11/24/1
f 47/25/1 48/26/1 15/27/1 13/28/1
f 48/21/1 49/22/1 17/23/1 15/24/1
f 49/21/1 50/22/1 19/23/1 17/24/1
f 50/21/1 51/22/1 21/23/1 19/24/1
f 51/21/1 52/22/1 23/23/1 21/24/1
f 52/29/1 53/30/1 25/31/1 23/32/1
f 53/21/1 54/22/1 27/23/1 25/24/1
f 54/21/1 55/22/1 29/23/1 27/24/1
f 55/9/1 56/10/1 31/11/1 29/12/1
f 56/21/1 57/22/1 33/23/1 31/24/1
f 57/21/1 58/22/1 35/23/1 33/24/1
f 58/33/1 59/17/1 37/34/1 35/35/1
f 59/36/1 60/37/1 39/38/1 37/39/1
f 61/17/1 62/18/1 42/19/1 41/20/1
f 62/21/1 63/22/1 43/23/1 42/24/1
f 63/21/1 64/22/1 44/23/1 43/24/1
f 64/40/1 65/41/1 45/35/1 44/42/1
f 65/40/1 66/41/1 46/35/1 45/42/1
f 66/40/1 67/41/1 47/35/1 46/42/1
f 67/40/1 68/41/1 48/35/1 47/42/1
f 68/40/1 69/41/1 49/35/1 48/42/1
f 69/40/1 70/41/1 50/35/1 49/42/1
f 70/40/1 71/41/1 51/35/1 50/42/1
f 71/40/1 72/41/1 52/35/1 51/42/1
f 72/40/1 73/41/1 53/35/1 52/42/1
f 73/40/1 74/41/1 54/35/1 53/42/1
f 74/40/1 75/41/1 55/35/1 54/42/1
f 75/40/1 76/41/1 56/35/1 55/42/1
f 76/40/1 77/41/1 57/35/1 56/42/1
f 77/21/1 78/22/1 58/23/1 57/24/1
f 78/25/1 79/26/1 59/27/1 58/28/1
f 79/36/1 80/37/1 60/38/1 59/39/1
f 81/17/1 82/18/1 62/19/1 61/20/1
f 82/21/1 83/22/1 63/23/1 62/24/1
f 83/36/1 84/37/1 64/38/1 63/39/1
f 85/17/1 86/18/1 78/19/1 77/20/1
f 86/21/1 87/22/1 79/23/1 78/24/1
f 87/36/1 88/37/1 80/38/1 79/39/1
f 89/17/1 90/18/1 82/19/1 81/20/1
f 90/25/1 91/26/1 83/27/1 82/28/1
f 91/36/1 92/37/1 84/38/1 83/39/1
f 93/17/1 94/18/1 86/19/1 85/20/1
f 94/33/1 95/17/1 87/34/1 86/35/1
f 95/36/1 96/37/1 88/38/1 87/39/1
f 97/17/1 98/18/1 90/19/1 89/20/1
f 98/21/1 99/22/1 91/23/1 90/24/1
f 99/36/1 100/37/1 92/38/1 91/39/1
f 101/17/1 102/18/1 94/19/1 93/20/1
f 102/21/1 103/22/1 95/23/1 94/24/1
f 103/36/1 104/37/1 96/38/1 95/39/1
f 105/17/1 106/18/1 98/19/1 97/20/1
f 106/21/1 107/22/1 99/23/1 98/24/1
f 107/36/1 108/37/1 100/38/1 99/39/1
f 109/17/1 110/18/1 102/19/1 101/20/1
f 110/21/1 111/22/1 103/23/1 102/24/1
f 111/36/1 112/37/1 104/38/1 103/39/1
f 113/17/1 114/18/1 106/19/1 105/20/1
f 114/21/1 115/22/1 107/23/1 106/24/1
f 115/36/1 116/37/1 108/38/1 107/39/1
f 117/17/1 118/18/1 110/19/1 109/20/1
f 118/29/1 119/30/1 111/31/1 110/32/1
f 119/36/1 120/37/1 112/38/1 111/39/1
f 121/17/1 122/18/1 114/19/1 113/20/1
f 122/29/1 123/30/1 115/31/1 114/32/1
f 123/21/1 124/22/1 116/23/1 115/24/1
f 124/5/1 125/6/1 126/7/1 116/8/1
f 125/5/1 127/6/1 128/7/1 126/8/1
f 127/5/1 129/6/1 130/7/1 128/8/1
f 129/5/1 131/6/1 132/7/1 130/8/1
f 131/5/1 133/6/1 134/7/1 132/8/1
f 133/5/1 135/6/1 136/7/1 134/8/1
f 135/5/1 137/6/1 138/7/1 136/8/1
f 137/5/1 139/6/1 140/7/1 138/8/1
f 139/5/1 141/6/1 142/7/1 140/8/1
f 141/5/1 143/6/1 144/7/1 142/8/1
f 143/43/1 145/44/1 146/45/1 144/46/1
f 145/47/1 147/48/1 148/49/1 146/33/1
f 147/5/1 149/6/1 117/7/1 148/8/1
f 149/21/1 150/22/1 118/23/1 117/24/1
f 150/29/1 151/30/1 119/31/1 118/32/1
f 151/36/1 152/37/1 120/38/1 119/39/1
f 153/17/1 154/18/1 122/19/1 121/20/1
f 154/21/1 155/22/1 123/23/1 122/24/1
f 155/29/1 156/30/1 124/31/1 123/32/1
f 156/21/1 157/22/1 125/23/1 124/24/1
f 157/21/1 158/22/1 127/23/1 125/24/1
f 158/21/1 159/22/1 129/23/1 127/24/1
f 159/9/1 160/10/1 131/11/1 129/12/1
f 160/9/1 161/10/1 133/11/1 131/12/1
f 161/21/1 162/22/1 135/23/1 133/24/1
f 162/21/1 163/22/1 137/23/1 135/24/1
f 163/21/1 164/22/1 139/23/1 137/24/1
f 164/25/1 165/26/1 141/27/1 139/28/1
f 165/21/1 166/22/1 143/23/1 141/24/1
f 166/21/1 167/22/1 145/23/1 143/24/1
f 167/21/1 168/22/1 147/23/1 145/24/1
f 168/21/1 169/22/1 149/23/1 147/24/1
f 169/21/1 170/22/1 150/23/1 149/24/1
f 170/29/1 171/30/1 151/31/1 150/32/1
f 171/36/1 172/37/1 152/38/1 151/39/1
f 173/50/1 174/51/1 154/52/1 153/53/1
f 174/40/1 175/41/1 155/35/1 154/42/1
f 175/40/1 176/41/1 156/35/1 155/42/1
f 176/40/1 177/41/1 157/35/1 156/42/1
f 177/40/1 178/41/1 158/35/1 157/42/1
f 178/9/1 179/10/1 159/11/1 158/12/1
f 179/9/1 180/10/1 160/11/1 159/12/1
f 180/40/1 181/41/1 161/35/1 160/42/1
f 181/40/1 182/41/1 162/35/1 161/42/1
f 182/40/1 183/41/1 163/35/1 162/42/1
f 183/40/1 184/41/1 164/35/1 163/42/1
f 184/40/1 185/41/1 165/35/1 164/42/1
f 185/25/1 186/26/1 166/27/1 165/28/1
f 186/25/1 187/26/1 167/27/1 166/28/1
f 187/40/1 188/41/1 168/35/1 167/42/1
f 188/40/1 189/41/1 169/35/1 168/42/1
f 189/40/1 190/41/1 170/35/1 169/42/1
f 190/40/1 191/41/1 171/35/1 170/42/1
f 191/54/1 192/55/1 172/56/1 171/57/1

